<svg id="svg" version="1.1" xmlns="http://www.w3.org/2000/svg" xmlns:xlink="http://www.w3.org/1999/xlink" width="400" height="400" viewBox="0, 0, 400,400"><g id="svgg"><path id="path0" d="M44.800 71.198 L 44.800 129.995 75.900 130.098 L 107.000 130.200 106.978 135.000 C 106.966 137.640,106.726 143.490,106.444 148.000 C 106.162 152.510,105.769 159.080,105.571 162.600 C 105.373 166.120,105.031 172.060,104.811 175.800 C 104.591 179.540,104.241 185.750,104.033 189.600 C 103.410 201.164,102.853 211.009,102.417 218.200 C 101.018 241.270,98.545 283.654,97.994 294.000 C 97.121 310.424,97.084 310.859,96.509 311.434 C 96.028 311.915,89.701 312.000,54.571 312.000 L 13.200 312.000 13.200 350.800 L 13.200 389.600 201.400 389.600 L 389.600 389.600 389.600 350.800 L 389.600 312.000 348.500 311.994 C 305.075 311.987,306.568 312.051,306.296 310.199 L 306.120 309.000 306.060 310.300 L 306.000 311.600 203.100 311.568 C 146.505 311.551,100.380 311.471,100.600 311.391 C 100.974 311.256,117.686 310.525,141.800 309.592 C 147.520 309.370,156.520 309.014,161.800 308.801 C 179.197 308.098,191.592 307.609,207.400 307.001 C 235.608 305.915,243.681 305.602,253.600 305.207 C 258.990 304.992,268.620 304.625,275.000 304.390 C 281.380 304.155,290.042 303.791,294.249 303.581 C 305.089 303.041,304.992 303.037,305.549 304.100 C 305.971 304.907,305.996 304.856,305.791 303.600 C 305.666 302.830,305.398 299.320,305.195 295.800 C 304.993 292.280,304.638 286.250,304.406 282.400 C 304.175 278.550,303.813 272.340,303.602 268.600 C 303.392 264.860,303.038 258.830,302.817 255.200 C 302.298 246.692,301.695 235.821,301.198 226.000 C 300.777 217.677,300.324 209.965,298.380 178.000 C 297.704 166.890,297.004 153.337,296.824 147.882 C 296.644 142.427,296.368 137.837,296.211 137.682 C 296.054 137.527,296.058 140.263,296.219 143.763 L 296.513 150.126 293.957 149.868 C 292.550 149.727,289.690 149.422,287.600 149.192 C 285.510 148.962,282.000 148.591,279.800 148.367 C 277.600 148.143,274.270 147.798,272.400 147.600 C 269.268 147.269,267.079 147.043,257.000 146.012 C 251.816 145.481,239.044 144.149,230.000 143.196 C 222.417 142.397,190.846 139.152,183.200 138.386 C 181.110 138.176,177.690 137.818,175.600 137.589 C 173.510 137.361,170.090 137.006,168.000 136.800 C 165.910 136.595,162.400 136.234,160.200 136.000 C 158.000 135.765,154.580 135.408,152.600 135.206 C 150.620 135.005,147.155 134.651,144.900 134.420 C 142.645 134.189,138.955 133.811,136.700 133.580 C 134.445 133.349,130.980 132.995,129.000 132.794 C 127.020 132.592,123.690 132.245,121.600 132.022 C 119.510 131.800,116.630 131.512,115.200 131.383 C 111.547 131.054,110.613 130.827,111.063 130.377 C 111.300 130.140,145.938 130.036,203.421 130.099 L 295.400 130.200 295.621 132.600 L 295.842 135.000 296.021 132.600 L 296.200 130.200 327.300 130.098 L 358.400 129.995 358.400 71.198 L 358.400 12.400 327.403 12.400 L 296.406 12.400 296.303 35.900 L 296.200 59.400 264.600 59.400 L 233.000 59.400 232.800 36.000 L 232.600 12.600 201.503 12.498 L 170.406 12.395 170.303 35.898 L 170.200 59.400 138.600 59.400 L 107.000 59.400 106.897 35.900 L 106.794 12.400 75.797 12.400 L 44.800 12.400 44.800 71.198 " stroke="none" fill="#938373" fill-rule="evenodd"></path><path id="path1" d="M44.800 7.977 C 44.470 8.159,43.705 8.539,43.100 8.821 C 42.495 9.104,42.000 9.492,42.000 9.684 C 42.000 9.876,41.640 10.420,41.200 10.892 C 40.760 11.364,40.400 12.156,40.400 12.652 C 40.400 13.147,40.220 13.664,40.000 13.800 C 39.446 14.142,39.446 128.400,40.000 128.400 C 40.220 128.400,40.400 128.940,40.400 129.600 C 40.400 130.260,40.580 130.800,40.800 130.800 C 41.020 130.800,41.200 131.083,41.200 131.429 C 41.200 132.147,42.134 133.200,42.771 133.200 C 43.007 133.200,43.200 133.380,43.200 133.600 C 43.200 133.820,43.545 134.000,43.967 134.000 C 44.388 134.000,44.797 134.191,44.875 134.425 C 45.093 135.078,59.582 135.573,78.876 135.587 C 89.815 135.596,96.042 135.744,96.200 136.000 C 96.336 136.220,96.752 136.403,97.124 136.406 C 98.033 136.415,100.400 138.543,100.400 139.353 C 100.400 139.709,100.580 140.000,100.800 140.000 C 101.053 140.000,101.200 142.933,101.200 148.000 C 101.200 153.067,101.053 156.000,100.800 156.000 C 100.549 156.000,100.400 158.600,100.400 163.000 C 100.400 167.400,100.251 170.000,100.000 170.000 C 99.749 170.000,99.600 172.467,99.600 176.600 C 99.600 180.733,99.451 183.200,99.200 183.200 C 98.963 183.200,98.800 184.667,98.800 186.800 C 98.800 188.933,98.637 190.400,98.400 190.400 C 98.149 190.400,98.000 193.000,98.000 197.400 C 98.000 201.800,97.851 204.400,97.600 204.400 C 97.350 204.400,97.200 206.859,97.200 210.976 C 97.200 214.929,97.040 217.651,96.800 217.800 C 96.559 217.949,96.400 220.730,96.400 224.800 C 96.400 228.870,96.241 231.651,96.000 231.800 C 95.760 231.949,95.600 234.663,95.600 238.600 C 95.600 242.537,95.440 245.251,95.200 245.400 C 94.959 245.549,94.800 248.330,94.800 252.400 C 94.800 256.470,94.641 259.251,94.400 259.400 C 94.159 259.549,94.000 262.337,94.000 266.424 C 94.000 270.459,93.846 273.200,93.618 273.200 C 93.399 273.200,93.155 276.048,93.044 279.900 C 92.448 300.599,91.643 305.200,88.618 305.200 C 88.278 305.200,88.000 305.380,88.000 305.600 C 88.000 305.820,87.460 306.000,86.800 306.000 C 86.140 306.000,85.600 306.180,85.600 306.400 C 85.600 306.664,73.533 306.800,50.200 306.800 C 26.867 306.800,14.800 306.936,14.800 307.200 C 14.800 307.420,14.305 307.613,13.700 307.629 C 10.045 307.726,8.415 310.580,8.407 316.900 C 8.403 319.762,8.244 321.600,8.000 321.600 C 7.737 321.600,7.600 331.600,7.600 350.800 C 7.600 370.000,7.737 380.000,8.000 380.000 C 8.244 380.000,8.400 381.807,8.400 384.621 C 8.400 389.148,9.281 392.385,10.517 392.397 C 10.691 392.399,11.220 392.760,11.692 393.200 C 12.276 393.744,13.104 394.000,14.275 394.000 C 15.224 394.000,16.000 394.180,16.000 394.400 C 16.000 394.666,78.133 394.800,201.600 394.800 C 325.067 394.800,387.200 394.666,387.200 394.400 C 387.200 394.180,387.830 394.000,388.600 394.000 C 389.370 394.000,390.000 393.820,390.000 393.600 C 390.000 393.380,390.278 393.200,390.618 393.200 C 391.418 393.200,393.200 391.418,393.200 390.618 C 393.200 390.278,393.380 390.000,393.600 390.000 C 393.820 390.000,394.000 389.370,394.000 388.600 C 394.000 387.830,394.180 387.200,394.400 387.200 C 394.664 387.200,394.800 374.800,394.800 350.800 C 394.800 326.800,394.664 314.400,394.400 314.400 C 394.180 314.400,394.000 313.680,394.000 312.800 C 394.000 311.920,393.820 311.200,393.600 311.200 C 393.380 311.200,393.200 310.930,393.200 310.600 C 393.200 310.270,393.020 310.000,392.800 310.000 C 392.580 310.000,392.400 309.733,392.400 309.408 C 392.400 309.082,391.950 308.702,391.400 308.564 C 390.850 308.426,390.400 308.153,390.400 307.957 C 390.400 307.760,389.781 307.600,389.024 307.600 C 388.267 307.600,387.536 307.420,387.400 307.200 C 387.238 306.938,375.129 306.800,352.376 306.800 C 329.459 306.800,317.600 306.664,317.600 306.400 C 317.600 306.180,317.060 306.000,316.400 306.000 C 315.740 306.000,315.200 305.820,315.200 305.600 C 315.200 305.380,314.922 305.200,314.582 305.200 C 314.242 305.200,313.522 304.758,312.982 304.218 C 312.442 303.678,312.000 302.958,312.000 302.618 C 312.000 302.278,311.820 302.000,311.600 302.000 C 311.380 302.000,311.200 301.291,311.200 300.424 C 311.200 299.557,311.020 298.736,310.800 298.600 C 310.564 298.454,310.400 296.063,310.400 292.776 C 310.400 289.325,310.248 287.200,310.000 287.200 C 309.749 287.200,309.600 284.733,309.600 280.600 C 309.600 276.467,309.451 274.000,309.200 274.000 C 308.952 274.000,308.800 271.792,308.800 268.175 C 308.800 264.971,308.626 259.796,308.413 256.675 C 307.647 245.458,306.582 224.395,306.174 212.400 C 306.050 208.770,305.781 205.629,305.575 205.420 C 305.369 205.211,305.200 202.027,305.200 198.344 C 305.200 194.311,305.041 191.549,304.800 191.400 C 304.561 191.252,304.400 188.654,304.400 184.950 C 304.400 181.539,304.231 178.432,304.025 178.047 C 303.819 177.662,303.572 174.479,303.477 170.973 C 303.381 167.468,303.206 164.330,303.089 164.000 C 302.414 162.110,301.791 140.576,302.400 140.200 C 302.620 140.064,302.800 139.680,302.800 139.346 C 302.800 138.588,304.946 136.400,305.689 136.400 C 305.992 136.400,306.465 136.175,306.740 135.900 C 307.125 135.515,313.042 135.354,332.487 135.200 C 352.185 135.044,357.770 134.890,357.900 134.500 C 357.992 134.225,358.412 134.000,358.833 134.000 C 359.255 134.000,359.600 133.820,359.600 133.600 C 359.600 133.380,359.960 133.200,360.400 133.200 C 360.900 133.200,361.200 132.933,361.200 132.488 C 361.200 132.097,361.560 131.517,362.000 131.200 C 362.470 130.861,362.800 130.165,362.800 129.512 C 362.800 128.900,362.980 128.400,363.200 128.400 C 363.465 128.400,363.600 109.133,363.600 71.400 C 363.600 33.667,363.465 14.400,363.200 14.400 C 362.980 14.400,362.800 13.792,362.800 13.048 C 362.800 11.334,360.149 8.400,358.600 8.400 C 358.050 8.400,357.600 8.220,357.600 8.000 C 357.600 7.737,347.267 7.600,327.400 7.600 C 307.533 7.600,297.200 7.737,297.200 8.000 C 297.200 8.220,296.747 8.400,296.194 8.400 C 294.777 8.400,292.453 10.670,291.895 12.600 C 291.586 13.665,291.390 19.847,291.307 31.100 C 291.229 41.772,291.039 48.000,290.792 48.000 C 290.576 48.000,290.400 48.540,290.400 49.200 C 290.400 49.860,290.220 50.400,290.000 50.400 C 289.780 50.400,289.600 50.678,289.600 51.018 C 289.600 51.990,287.741 53.600,286.618 53.600 C 286.058 53.600,285.600 53.780,285.600 54.000 C 285.600 54.262,278.267 54.400,264.400 54.400 C 250.533 54.400,243.200 54.262,243.200 54.000 C 243.200 53.780,242.840 53.600,242.400 53.600 C 241.960 53.600,241.600 53.420,241.600 53.200 C 241.600 52.980,241.407 52.800,241.171 52.800 C 239.946 52.800,238.800 50.397,238.800 47.829 C 238.800 46.629,238.620 45.536,238.400 45.400 C 238.145 45.242,238.000 39.669,238.000 29.995 C 238.000 19.701,237.856 14.479,237.550 13.719 C 236.547 11.224,236.150 10.552,235.058 9.500 C 234.348 8.816,233.477 8.400,232.758 8.400 C 232.121 8.400,231.600 8.220,231.600 8.000 C 231.600 7.737,221.333 7.600,201.600 7.600 C 181.867 7.600,171.600 7.737,171.600 8.000 C 171.600 8.220,171.079 8.400,170.442 8.400 C 169.150 8.400,166.800 10.310,166.800 11.360 C 166.800 11.712,166.620 12.000,166.400 12.000 C 166.180 12.000,166.000 12.439,166.000 12.976 C 166.000 13.513,165.820 14.064,165.600 14.200 C 165.345 14.358,165.200 19.796,165.200 29.200 C 165.200 38.604,165.055 44.042,164.800 44.200 C 164.580 44.336,164.400 45.511,164.400 46.811 C 164.400 48.429,164.149 49.623,163.605 50.591 C 163.168 51.369,162.818 52.114,162.827 52.246 C 162.836 52.378,161.993 52.917,160.954 53.443 L 159.064 54.400 137.932 54.400 C 124.111 54.400,116.800 54.262,116.800 54.000 C 116.800 53.780,116.524 53.600,116.187 53.600 C 115.063 53.600,112.800 50.936,112.800 49.613 C 112.800 48.946,112.620 48.400,112.400 48.400 C 112.140 48.400,112.000 42.533,112.000 31.600 C 112.000 20.667,111.860 14.800,111.600 14.800 C 111.380 14.800,111.200 14.102,111.200 13.248 C 111.200 11.334,108.658 8.400,107.000 8.400 C 106.450 8.400,106.000 8.220,106.000 8.000 C 106.000 7.508,45.694 7.485,44.800 7.977 M107.216 12.300 C 107.224 12.685,107.223 23.170,107.213 35.600 C 107.203 48.030,107.342 58.426,107.523 58.703 C 107.782 59.100,114.273 59.184,138.625 59.103 L 169.400 59.000 169.600 35.400 L 169.800 11.800 201.156 11.698 C 223.989 11.623,232.660 11.718,233.056 12.047 C 233.503 12.418,233.600 16.651,233.600 35.851 L 233.600 59.205 264.500 59.102 L 295.400 59.000 295.608 35.400 C 295.722 22.420,295.857 11.755,295.908 11.700 C 296.410 11.155,358.746 11.682,358.957 12.233 C 359.597 13.899,359.213 130.309,358.567 130.557 C 358.219 130.691,344.072 130.800,327.130 130.800 L 296.325 130.800 296.558 132.700 C 296.687 133.745,296.981 138.290,297.211 142.800 C 297.748 153.294,299.078 177.456,299.589 186.000 C 299.806 189.630,300.174 196.020,300.406 200.200 C 300.638 204.380,300.999 210.770,301.209 214.400 C 301.418 218.030,301.774 224.240,302.000 228.200 C 302.226 232.160,302.585 238.370,302.798 242.000 C 303.631 256.186,303.995 262.477,304.384 269.400 C 304.606 273.360,304.891 278.220,305.016 280.200 C 305.142 282.180,305.406 286.770,305.603 290.400 C 306.333 303.836,306.753 309.818,307.016 310.500 C 307.270 311.160,309.624 311.200,348.643 311.200 L 390.000 311.200 390.000 350.600 L 390.000 390.000 201.198 390.000 L 12.396 390.000 12.498 350.700 L 12.600 311.400 54.267 311.200 C 77.183 311.090,96.025 310.908,96.137 310.796 C 96.249 310.684,96.542 307.084,96.788 302.796 C 97.506 290.299,97.947 282.698,98.403 275.000 C 98.638 271.040,99.000 264.740,99.208 261.000 C 100.140 244.219,100.392 239.764,100.780 233.200 C 101.008 229.350,101.826 215.310,102.600 202.000 C 103.373 188.690,104.190 174.740,104.414 171.000 C 104.922 162.558,105.505 152.353,106.004 143.200 C 106.214 139.350,106.503 134.986,106.647 133.502 L 106.909 130.805 75.555 130.702 L 44.200 130.600 44.097 71.600 C 44.041 39.150,44.080 12.375,44.185 12.100 C 44.531 11.190,107.195 11.389,107.216 12.300 " stroke="none" fill="#f8f7f7" fill-rule="evenodd"></path><path id="path2" d="M111.008 130.387 C 110.726 130.844,111.647 131.063,115.200 131.383 C 116.630 131.512,119.510 131.800,121.600 132.022 C 123.690 132.245,127.020 132.592,129.000 132.794 C 130.980 132.995,134.445 133.349,136.700 133.580 C 138.955 133.811,142.645 134.189,144.900 134.420 C 147.155 134.651,150.620 135.005,152.600 135.206 C 154.580 135.408,158.000 135.765,160.200 136.000 C 162.400 136.234,165.910 136.595,168.000 136.800 C 170.090 137.006,173.510 137.361,175.600 137.589 C 177.690 137.818,181.110 138.176,183.200 138.386 C 190.846 139.152,222.417 142.397,230.000 143.196 C 239.044 144.149,251.816 145.481,257.000 146.012 C 267.079 147.043,269.268 147.269,272.400 147.600 C 274.270 147.798,277.600 148.143,279.800 148.367 C 282.000 148.591,285.510 148.962,287.600 149.192 C 289.690 149.422,292.546 149.726,293.946 149.867 L 296.491 150.124 296.194 142.962 C 296.031 139.023,295.786 134.540,295.649 133.000 L 295.400 130.200 203.324 130.099 C 143.975 130.034,111.163 130.137,111.008 130.387 M292.800 303.632 C 289.390 303.803,281.380 304.140,275.000 304.380 C 268.620 304.620,258.990 304.992,253.600 305.207 C 243.681 305.602,235.608 305.915,207.400 307.001 C 191.592 307.609,179.197 308.098,161.800 308.801 C 156.520 309.014,147.520 309.370,141.800 309.592 C 117.686 310.525,100.974 311.256,100.600 311.391 C 100.380 311.471,146.505 311.551,203.100 311.568 L 306.000 311.600 306.000 308.419 C 306.000 302.642,306.788 302.928,292.800 303.632 " stroke="none" fill="#74644d" fill-rule="evenodd"></path><path id="path3" d="M44.669 12.264 C 44.521 12.412,44.400 39.053,44.400 71.467 L 44.400 130.400 75.567 130.400 C 96.452 130.400,106.800 130.535,106.937 130.810 C 107.049 131.036,107.094 130.990,107.037 130.710 C 106.954 130.303,100.660 130.179,75.867 130.098 L 44.800 129.995 44.800 71.198 L 44.800 12.400 75.797 12.400 L 106.794 12.400 106.897 35.867 C 106.987 56.328,107.077 59.354,107.600 59.497 C 108.041 59.617,108.068 59.568,107.703 59.309 C 107.319 59.037,107.183 53.647,107.103 35.578 L 107.000 12.200 75.969 12.098 C 58.902 12.041,44.817 12.116,44.669 12.264 M170.267 12.267 C 170.120 12.413,170.000 23.018,170.000 35.833 C 170.000 51.347,169.863 59.201,169.590 59.337 C 169.365 59.449,169.410 59.494,169.690 59.437 C 170.095 59.355,170.221 54.499,170.303 35.864 L 170.406 12.395 201.503 12.498 L 232.600 12.600 232.800 35.967 C 232.958 54.457,233.106 59.355,233.510 59.437 C 233.790 59.494,233.836 59.449,233.610 59.337 C 233.337 59.201,233.200 51.463,233.200 36.199 C 233.200 23.586,233.091 12.981,232.957 12.633 C 232.704 11.972,170.922 11.612,170.267 12.267 M296.269 12.264 C 296.121 12.412,296.000 23.018,296.000 35.833 C 296.000 51.347,295.863 59.201,295.590 59.337 C 295.365 59.449,295.410 59.494,295.690 59.437 C 296.095 59.355,296.221 54.500,296.303 35.867 L 296.406 12.400 327.403 12.400 L 358.400 12.400 358.400 71.200 L 358.400 130.000 327.424 130.000 C 310.387 130.000,296.364 130.135,296.262 130.300 C 296.160 130.465,310.144 130.510,327.338 130.400 L 358.600 130.200 358.600 71.200 L 358.600 12.200 327.569 12.098 C 310.502 12.041,296.417 12.116,296.269 12.264 M296.131 135.000 C 296.133 136.540,296.205 137.121,296.292 136.291 C 296.379 135.461,296.377 134.201,296.289 133.491 C 296.200 132.781,296.129 133.460,296.131 135.000 M106.634 138.118 C 106.451 140.932,106.396 143.329,106.511 143.444 C 106.790 143.723,107.319 135.723,107.122 134.200 C 107.036 133.540,106.817 135.303,106.634 138.118 M296.493 139.600 C 296.493 140.370,296.575 140.685,296.676 140.300 C 296.776 139.915,296.776 139.285,296.676 138.900 C 296.575 138.515,296.493 138.830,296.493 139.600 M296.842 149.433 C 296.866 151.835,297.024 155.420,297.194 157.400 C 297.396 159.739,297.432 158.268,297.300 153.200 C 297.187 148.910,297.029 145.325,296.948 145.233 C 296.866 145.142,296.819 147.032,296.842 149.433 M105.846 151.718 C 105.657 154.312,105.597 156.531,105.714 156.647 C 106.030 156.964,106.484 151.301,106.327 149.000 C 106.232 147.613,106.085 148.445,105.846 151.718 M105.277 163.000 C 105.231 164.100,105.111 166.260,105.008 167.800 C 104.829 170.496,104.837 170.528,105.228 168.656 C 105.451 167.587,105.572 165.427,105.496 163.856 C 105.390 161.656,105.340 161.459,105.277 163.000 M297.709 164.400 C 297.701 165.830,297.823 168.800,297.981 171.000 L 298.268 175.000 298.294 171.800 C 298.309 170.040,298.186 167.070,298.022 165.200 C 297.732 161.888,297.723 161.867,297.709 164.400 M104.477 176.600 C 104.431 177.700,104.311 179.860,104.208 181.400 C 104.029 184.096,104.037 184.128,104.428 182.256 C 104.651 181.187,104.772 179.027,104.696 177.456 C 104.590 175.256,104.540 175.059,104.477 176.600 M298.689 181.600 C 298.803 185.010,298.965 187.875,299.048 187.967 C 299.299 188.243,299.143 182.433,298.801 178.800 C 298.569 176.336,298.538 177.107,298.689 181.600 M103.457 193.734 C 103.280 196.558,103.221 198.955,103.327 199.060 C 103.591 199.324,104.113 191.289,103.929 189.800 C 103.847 189.140,103.635 190.910,103.457 193.734 M299.495 195.600 C 299.610 198.570,299.771 201.075,299.852 201.167 C 300.112 201.460,299.924 195.086,299.600 192.600 C 299.399 191.068,299.362 192.153,299.495 195.600 M102.594 208.194 C 102.433 211.406,102.394 214.128,102.508 214.241 C 102.622 214.355,102.846 211.819,103.006 208.606 C 103.167 205.394,103.206 202.672,103.092 202.559 C 102.978 202.445,102.754 204.981,102.594 208.194 M300.309 209.600 C 300.420 212.570,300.576 215.075,300.656 215.167 C 300.916 215.467,300.728 208.651,300.414 206.400 C 300.227 205.063,300.186 206.319,300.309 209.600 M101.796 221.737 C 101.637 224.918,101.591 227.764,101.693 228.061 C 101.794 228.357,102.013 225.843,102.178 222.473 C 102.344 219.103,102.390 216.257,102.282 216.149 C 102.174 216.041,101.955 218.555,101.796 221.737 M300.914 219.800 C 300.917 220.900,300.995 221.303,301.087 220.695 C 301.179 220.086,301.177 219.186,301.082 218.695 C 300.987 218.203,300.911 218.700,300.914 219.800 M301.346 227.000 C 301.347 229.200,301.414 230.049,301.495 228.887 C 301.576 227.724,301.576 225.924,301.493 224.887 C 301.411 223.849,301.345 224.800,301.346 227.000 M100.996 235.337 C 100.837 238.518,100.791 241.364,100.893 241.661 C 100.994 241.957,101.213 239.443,101.378 236.073 C 101.544 232.703,101.590 229.857,101.482 229.749 C 101.374 229.641,101.155 232.155,100.996 235.337 M301.728 234.400 C 301.728 235.830,301.801 236.415,301.889 235.700 C 301.978 234.985,301.978 233.815,301.889 233.100 C 301.801 232.385,301.728 232.970,301.728 234.400 M302.146 241.400 C 302.147 243.600,302.214 244.449,302.295 243.287 C 302.376 242.124,302.376 240.324,302.293 239.287 C 302.211 238.249,302.145 239.200,302.146 241.400 M100.202 248.874 C 100.048 251.363,99.988 253.940,100.068 254.600 C 100.148 255.260,100.352 253.301,100.520 250.246 C 100.688 247.192,100.748 244.615,100.654 244.521 C 100.559 244.426,100.356 246.385,100.202 248.874 M302.534 248.400 C 302.534 250.050,302.605 250.725,302.691 249.900 C 302.778 249.075,302.778 247.725,302.691 246.900 C 302.605 246.075,302.534 246.750,302.534 248.400 M302.944 255.200 C 302.944 257.290,303.012 258.145,303.094 257.100 C 303.176 256.055,303.176 254.345,303.094 253.300 C 303.012 252.255,302.944 253.110,302.944 255.200 M99.481 261.360 C 99.326 263.099,99.226 265.709,99.258 267.160 C 99.297 268.948,99.426 268.121,99.657 264.600 C 100.040 258.776,99.914 256.478,99.481 261.360 M303.331 261.800 C 303.333 263.340,303.405 263.921,303.492 263.091 C 303.579 262.261,303.577 261.001,303.489 260.291 C 303.400 259.581,303.329 260.260,303.331 261.800 M303.640 268.433 C 303.662 270.285,303.822 273.330,303.995 275.200 C 304.215 277.563,304.248 276.587,304.105 272.000 C 303.888 265.078,303.572 262.654,303.640 268.433 M98.914 273.800 C 98.917 274.900,98.995 275.303,99.087 274.695 C 99.179 274.086,99.177 273.186,99.082 272.695 C 98.987 272.203,98.911 272.700,98.914 273.800 M98.548 280.000 C 98.548 282.310,98.614 283.255,98.695 282.100 C 98.776 280.945,98.776 279.055,98.695 277.900 C 98.614 276.745,98.548 277.690,98.548 280.000 M304.452 282.433 C 304.481 284.285,304.642 287.150,304.809 288.800 C 305.004 290.725,305.040 289.578,304.908 285.600 C 304.691 279.025,304.364 276.757,304.452 282.433 M98.109 287.600 C 98.109 288.590,98.187 288.995,98.282 288.500 C 98.378 288.005,98.378 287.195,98.282 286.700 C 98.187 286.205,98.109 286.610,98.109 287.600 M97.748 294.800 C 97.748 297.110,97.814 298.055,97.895 296.900 C 97.976 295.745,97.976 293.855,97.895 292.700 C 97.814 291.545,97.748 292.490,97.748 294.800 M305.235 296.033 C 305.254 297.885,305.413 300.300,305.587 301.400 C 305.784 302.637,305.825 301.416,305.697 298.200 C 305.461 292.290,305.182 290.984,305.235 296.033 M97.324 301.800 C 97.326 303.120,97.401 303.612,97.490 302.893 C 97.579 302.174,97.577 301.094,97.486 300.493 C 97.395 299.892,97.322 300.480,97.324 301.800 M306.134 306.400 C 306.134 308.050,306.205 308.725,306.291 307.900 C 306.378 307.075,306.378 305.725,306.291 304.900 C 306.205 304.075,306.134 304.750,306.134 306.400 M96.800 307.920 C 96.800 309.502,96.599 310.841,96.320 311.120 C 95.953 311.487,86.080 311.600,54.320 311.600 L 12.800 311.600 12.898 350.700 L 12.996 389.800 13.100 350.900 L 13.204 312.000 54.573 312.000 C 91.649 312.000,96.008 311.935,96.571 311.371 C 97.161 310.782,97.549 305.200,97.000 305.200 C 96.890 305.200,96.800 306.424,96.800 307.920 M306.400 311.108 C 306.400 311.952,308.663 312.000,348.633 312.000 L 389.600 312.000 389.600 350.800 L 389.600 389.599 201.700 389.700 L 13.800 389.801 201.800 389.801 L 389.800 389.800 389.800 350.800 L 389.800 311.800 348.639 311.698 C 319.032 311.625,307.326 311.471,306.939 311.149 C 306.601 310.869,306.400 310.854,306.400 311.108 " stroke="none" fill="#bcae9e" fill-rule="evenodd"></path><path id="path4" d="M44.185 12.100 C 44.080 12.375,44.041 39.150,44.097 71.600 L 44.200 130.600 75.400 130.604 L 106.600 130.607 75.499 130.501 L 44.397 130.395 44.499 71.298 L 44.600 12.200 75.900 12.200 C 93.115 12.200,107.200 12.065,107.200 11.900 C 107.200 11.338,44.399 11.537,44.185 12.100 M169.787 12.100 C 169.684 12.375,169.555 23.040,169.500 35.800 L 169.400 59.000 138.600 59.204 L 107.800 59.407 138.400 59.498 C 155.230 59.547,169.224 59.446,169.497 59.272 C 169.881 59.028,170.017 53.671,170.097 35.578 L 170.200 12.200 201.500 12.098 C 218.715 12.041,232.841 12.041,232.892 12.098 C 232.943 12.154,233.080 22.820,233.198 35.800 L 233.413 59.400 233.506 35.980 C 233.577 18.192,233.485 12.445,233.120 12.080 C 232.406 11.366,170.055 11.386,169.787 12.100 M295.908 11.700 C 295.857 11.755,295.722 22.420,295.608 35.400 L 295.400 59.000 264.600 59.204 L 233.800 59.407 264.400 59.498 C 281.230 59.547,295.224 59.446,295.497 59.272 C 295.881 59.028,296.017 53.671,296.097 35.578 L 296.200 12.200 327.400 12.200 L 358.600 12.200 358.600 71.200 L 358.600 130.200 327.400 130.400 C 296.550 130.598,296.200 130.609,296.161 131.400 C 296.131 132.009,296.161 132.033,296.289 131.500 C 296.446 130.841,298.250 130.800,327.195 130.800 C 344.102 130.800,358.219 130.691,358.567 130.557 C 359.213 130.309,359.597 13.899,358.957 12.233 C 358.746 11.682,296.410 11.155,295.908 11.700 M296.534 135.600 C 296.534 137.250,296.605 137.925,296.691 137.100 C 296.778 136.275,296.778 134.925,296.691 134.100 C 296.605 133.275,296.534 133.950,296.534 135.600 M106.258 137.250 C 106.116 138.607,106.028 141.446,106.061 143.559 C 106.114 146.880,106.164 146.561,106.427 141.200 C 106.749 134.647,106.686 133.157,106.258 137.250 M296.940 142.000 C 296.940 143.870,297.009 144.635,297.093 143.700 C 297.177 142.765,297.177 141.235,297.093 140.300 C 297.009 139.365,296.940 140.130,296.940 142.000 M297.350 150.200 C 297.351 152.620,297.416 153.558,297.496 152.285 C 297.576 151.012,297.575 149.032,297.494 147.885 C 297.414 146.738,297.349 147.780,297.350 150.200 M105.714 149.800 C 105.717 150.900,105.795 151.303,105.887 150.695 C 105.979 150.086,105.977 149.186,105.882 148.695 C 105.787 148.203,105.711 148.700,105.714 149.800 M105.350 157.000 C 105.351 159.420,105.416 160.358,105.496 159.085 C 105.576 157.812,105.575 155.832,105.494 154.685 C 105.414 153.538,105.349 154.580,105.350 157.000 M297.706 157.800 C 297.691 159.560,297.814 162.530,297.978 164.400 C 298.268 167.712,298.277 167.733,298.291 165.200 C 298.299 163.770,298.177 160.800,298.019 158.600 L 297.732 154.600 297.706 157.800 M104.931 164.200 C 104.933 165.740,105.005 166.321,105.092 165.491 C 105.179 164.661,105.177 163.401,105.089 162.691 C 105.000 161.981,104.929 162.660,104.931 164.200 M104.262 173.543 C 104.092 177.141,104.033 180.167,104.133 180.266 C 104.378 180.512,104.925 169.260,104.729 168.000 C 104.643 167.450,104.433 169.944,104.262 173.543 M298.506 171.400 C 298.491 173.160,298.614 176.130,298.778 178.000 C 299.068 181.312,299.077 181.333,299.091 178.800 C 299.099 177.370,298.977 174.400,298.819 172.200 L 298.532 168.200 298.506 171.400 M103.452 187.534 C 103.278 191.128,103.220 194.154,103.325 194.258 C 103.577 194.510,104.129 183.281,103.927 182.000 C 103.840 181.450,103.627 183.940,103.452 187.534 M299.308 186.400 C 299.296 188.270,299.421 190.880,299.585 192.200 L 299.882 194.600 299.889 191.800 C 299.892 190.260,299.768 187.650,299.612 186.000 L 299.329 183.000 299.308 186.400 M102.640 201.331 C 102.468 204.812,102.415 207.748,102.521 207.855 C 102.776 208.109,103.338 196.784,103.121 195.778 C 103.028 195.350,102.812 197.849,102.640 201.331 M300.104 200.600 C 300.090 202.360,300.216 204.790,300.383 206.000 L 300.687 208.200 300.691 205.800 C 300.694 204.480,300.568 202.050,300.412 200.400 L 300.129 197.400 300.104 200.600 M101.840 214.931 C 101.668 218.412,101.615 221.348,101.721 221.455 C 101.976 221.709,102.538 210.384,102.321 209.378 C 102.228 208.950,102.012 211.449,101.840 214.931 M300.914 214.400 C 300.909 216.050,301.032 218.750,301.188 220.400 L 301.471 223.400 301.496 220.800 C 301.509 219.370,301.386 216.670,301.222 214.800 L 300.924 211.400 300.914 214.400 M101.022 228.727 C 100.856 232.097,100.810 234.943,100.918 235.051 C 101.178 235.312,101.746 223.834,101.507 223.139 C 101.406 222.843,101.187 225.357,101.022 228.727 M301.703 228.000 C 301.690 229.650,301.814 232.530,301.978 234.400 L 302.276 237.800 302.296 235.000 C 302.306 233.460,302.183 230.580,302.021 228.600 L 301.727 225.000 301.703 228.000 M100.251 242.524 C 100.066 245.782,100.005 248.539,100.116 248.649 C 100.392 248.926,100.906 240.184,100.730 238.200 C 100.652 237.320,100.436 239.266,100.251 242.524 M302.504 241.800 C 302.494 243.340,302.617 246.220,302.779 248.200 L 303.073 251.800 303.097 248.800 C 303.110 247.150,302.986 244.270,302.822 242.400 L 302.524 239.000 302.504 241.800 M99.441 256.462 C 99.258 259.246,99.194 261.766,99.299 262.062 C 99.556 262.790,100.112 254.560,99.924 252.800 C 99.842 252.030,99.624 253.678,99.441 256.462 M303.304 255.400 C 303.294 256.940,303.417 259.820,303.579 261.800 L 303.873 265.400 303.897 262.400 C 303.910 260.750,303.786 257.870,303.622 256.000 L 303.324 252.600 303.304 255.400 M98.645 270.525 C 98.465 273.344,98.407 275.741,98.518 275.851 C 98.790 276.123,99.316 268.110,99.126 266.600 C 99.042 265.940,98.826 267.706,98.645 270.525 M304.109 269.200 C 304.099 270.630,304.220 273.510,304.380 275.600 L 304.671 279.400 304.683 276.000 C 304.690 274.130,304.568 271.250,304.412 269.600 L 304.129 266.600 304.109 269.200 M97.832 284.461 C 97.653 287.465,97.593 290.165,97.698 290.461 C 97.947 291.166,98.533 281.303,98.320 280.000 C 98.229 279.450,98.010 281.458,97.832 284.461 M305.099 287.000 C 305.213 290.080,305.373 292.675,305.453 292.767 C 305.713 293.062,305.523 286.277,305.202 283.800 C 305.007 282.300,304.969 283.499,305.099 287.000 M97.010 298.461 C 96.843 301.684,96.793 304.564,96.897 304.861 C 97.002 305.157,97.224 302.763,97.390 299.539 C 97.557 296.316,97.607 293.436,97.503 293.139 C 97.398 292.843,97.176 295.237,97.010 298.461 M305.700 297.200 C 305.693 298.190,305.821 300.080,305.985 301.400 L 306.282 303.800 306.302 301.800 C 306.312 300.700,306.184 298.810,306.017 297.600 L 305.713 295.400 305.700 297.200 M96.474 308.500 C 96.433 309.765,96.355 310.843,96.300 310.895 C 96.245 310.948,77.390 311.083,54.400 311.195 L 12.600 311.400 12.498 350.700 C 12.401 387.953,12.433 389.998,13.098 389.968 C 13.516 389.950,13.598 389.855,13.300 389.735 C 12.905 389.576,12.800 381.366,12.800 350.567 L 12.800 311.600 54.351 311.600 C 101.057 311.600,96.945 311.917,96.696 308.332 L 96.548 306.200 96.474 308.500 M306.454 309.051 C 306.423 310.005,306.627 310.890,306.936 311.147 C 307.555 311.661,390.000 312.011,390.000 311.500 C 390.000 311.335,371.373 311.200,348.608 311.200 L 307.215 311.200 307.020 310.300 C 306.912 309.805,306.753 308.950,306.666 308.400 C 306.572 307.798,306.487 308.058,306.454 309.051 " stroke="none" fill="#ccc4b4" fill-rule="evenodd"></path></g></svg>